# xmcd
#
# Track frame offsets:
#	150
#	12212
#	27672
#	40400
#	49227
#	56612
#	75702
#	94247
#	103197
#	118550
#	132025
#	144810
#
# Disc length: 2244 seconds
#
# Revision: 1
# Processed by: cddbd v1.5.1PL0 Copyright (c) Steve Scherf et al.
# Submitted via: CDex 1.50Beta5
#
DISCID=9e08c20c
DTITLE=Masaaki Kishibe - TRUTH
DYEAR=1900
DGENRE=Instrumental
TTITLE0=Kichen Helper Blues
TTITLE1=こ鹿と少年
TTITLE2=Stream
TTITLE3=Morning glory
TTITLE4=Beat Time
TTITLE5=揚子江
TTITLE6=Snowfall
TTITLE7=幻想の森
TTITLE8=Inspiration
TTITLE9=Le solitaire
TTITLE10=「おやすみ」という前に
TTITLE11=Truth
EXTD=
EXTT0=
EXTT1=
EXTT2=
EXTT3=
EXTT4=
EXTT5=
EXTT6=
EXTT7=
EXTT8=
EXTT9=
EXTT10=
EXTT11=
PLAYORDER=
